<svg xmlns="http://www.w3.org/2000/svg" width="16" height="14" viewBox="0 0 16 14">
    <path fill="#9F9EC1" fill-rule="evenodd" d="M14.64 1.33A4.657 4.657 0 0 0 11.32 0a4.757 4.757 0 0 0-3.327 1.36l-4.1 4.02-2.84 2.785C-.33 9.52-.354 11.7.996 13.023A3.448 3.448 0 0 0 3.422 14c.91 0 1.828-.345 2.528-1.032l5.182-5.08 1.788-1.753a2.412 2.412 0 0 0 .733-1.7 2.31 2.31 0 0 0-.696-1.697c-.945-.926-2.5-.91-3.465.036L3.23 8.914a.464.464 0 0 0 0 .666.484.484 0 0 0 .678 0l6.263-6.141c.59-.58 1.536-.596 2.107-.036.273.268.421.63.416 1.02a1.487 1.487 0 0 1-.453 1.046l-1.85 1.814-5.12 5.02c-1.006.987-2.62 1.011-3.596.055-.976-.958-.951-2.54.056-3.527l.319-.314 6.622-6.492A3.792 3.792 0 0 1 11.326.941c.999.007 1.938.37 2.636 1.055 1.45 1.422 1.437 3.75-.03 5.188l-5.446 5.338a.463.463 0 0 0 0 .665.484.484 0 0 0 .679 0l5.445-5.339c1.841-1.805 1.855-4.729.03-6.518z"/>
</svg>
