<?xml version="1.0" encoding="UTF-8"?>
<svg width="22px" height="22px" viewBox="0 0 22 22" version="1.1" xmlns="http://www.w3.org/2000/svg" xmlns:xlink="http://www.w3.org/1999/xlink">
    <!-- Generator: Sketch 43.1 (39012) - http://www.bohemiancoding.com/sketch -->
    <title>ico_set</title>
    <desc>Created with Sketch.</desc>
    <defs></defs>
    <g id="Page-1" stroke="none" stroke-width="1" fill="none" fill-rule="evenodd">
        <g id="word_ico_sm">
            <path d="M0.0788376442,2.69849972 L12.7925142,0.155252985 L12.723837,21.7198811 L0.0474214966,19.3340805 L0.0788376442,2.69849972 Z M13.4885225,2.75929125 L21.9478223,2.75929125 L21.9478223,19.2667348 L13.4885225,19.2667348 L13.5372549,17.4674716 L20.2579839,17.3727381 L20.2579839,15.7547373 L13.5372549,15.7547373 L13.5372549,15.2279374 L20.2579839,15.2279374 L20.2579839,13.7817551 L13.509819,13.7817551 L13.509819,13.2637753 L20.2579839,13.2637753 L20.2579839,11.7462176 L13.5335021,11.7462176 L13.5335021,11.2346722 L20.2579839,11.2346722 L20.2579839,9.62942515 L13.5037658,9.58711996 L13.509819,9.03439343 L20.2579839,9.03439343 L20.2579839,7.48013745 L13.4885225,7.48013745 L13.4885225,6.88326637 L20.2579839,6.88326637 L20.2579839,5.14424055 L13.4885225,5.23579211 L13.4885225,2.75929125 Z" id="Path" fill="#306EAD"></path>
            <path d="M2.28903684,6.37383273 L1.64485981,6.37383178 L3.7195236,13.229765 L4.41555082,13.229765 L5.98954764,7.80874331 C5.98954764,7.80874331 7.78353752,13.2966541 7.75670177,13.2606061 C7.72986602,13.224558 8.5807996,13.229765 8.5807996,13.229765 L10.7235276,6.37383273 L10.0811295,6.37383273 L8.1602658,12.4865692 L6.10589008,6.37383273 L5.70525561,6.37383273 L4.06451451,12.4865692 L2.28903684,6.37383273 Z" id="Path-2" fill="#FFFFFF"></path>
        </g>
    </g>
</svg>