<?xml version="1.0" encoding="UTF-8"?>
<svg width="19px" height="22px" viewBox="0 0 19 22" version="1.1" xmlns="http://www.w3.org/2000/svg" xmlns:xlink="http://www.w3.org/1999/xlink">
    <!-- Generator: Sketch 43.1 (39012) - http://www.bohemiancoding.com/sketch -->
    <title>ico_set</title>
    <desc>Created with Sketch.</desc>
    <defs></defs>
    <g id="Page-1" stroke="none" stroke-width="1" fill="none" fill-rule="evenodd">
        <g id="yell_ico_sm" transform="translate(1.000000, 0.000000)" fill="#F4AD49">
            <path d="M0.35829582,0.433456569 C0.672628364,0.0783461805 1.06914856,-2.13162821e-13 1.50795879,1.20792265e-13 C1.50795879,1.20792265e-13 6.95421333,1.20792265e-13 6.95421333,1.20792265e-13 L6.95421333,1.00363277 L7.86082704,1.00363277 L7.86082704,1.97556082 L6.95421333,1.97556082 L6.95421333,2.72933173 L7.86082704,2.72933173 L7.86082704,3.58662768 L6.95421333,3.58662768 L6.95421333,4.32271181 L7.86082704,4.32271181 L7.86082704,5.09700664 L6.95421333,5.09700664 L6.95421333,5.86804179 L7.86082704,5.86804179 L7.86082704,6.90531259 L6.95421333,6.90531259 L6.95421333,7.89168942 L7.86082704,7.89168942 L7.86082704,8.84836898 L6.95421333,8.84836898 L6.95421333,9.97780733 L7.86082704,9.97780733 L7.86082704,10.625 L6.95421333,10.625 L6.95421333,16.9395292 L9.90168881,16.9395292 L9.90168881,11.4603604 L8.78319993,11.4603604 L8.78319993,10.5144296 L9.90168881,10.5144296 L9.90168881,9.80764082 L8.78319993,9.80764082 L8.77263209,9.01891331 L9.90168881,9.01891331 L9.90168881,8.02634684 L8.78319993,8.02634684 L8.78319993,7.06230514 L9.90168881,7.06230514 L9.90168881,6.34313907 L8.78319993,6.34313907 L8.78319993,5.41784371 L9.90168881,5.41784371 L9.90168881,4.4567209 L8.78319993,4.4567209 L8.77263209,3.58662768 L9.90168881,3.58662768 L9.90168881,2.72933173 L8.78319993,2.72933173 L8.78319993,1.87783077 L9.90168881,1.87783077 L9.90168881,1.00363277 L8.78319993,1.00363277 L8.78319993,1.20792265e-13 L11.1201749,1.20792265e-13 L11.1201749,0.433456569 L11.6233759,0.433456569 L11.6233759,0.911169868 L12.1462801,0.911169868 L12.1462801,1.45671475 L12.6308624,1.38138147 L12.6308624,1.87783077 L13.1473043,1.87783077 L13.1473043,2.35854491 L13.6073028,2.35854491 L13.6073028,2.84199746 L14.1585417,2.84199746 L14.1585417,3.39273929 L14.6333628,3.39273929 L14.6333628,3.89361505 L15.1802493,3.84929367 L15.1802493,4.36201035 L15.6532017,4.36201035 L15.6532017,4.81599202 L16.1979355,4.87104798 L16.1979355,5.33496981 L16.7085084,5.41784371 L16.7085084,5.86804179 L17,5.86804179 L17,19.6224257 C17,20.3576745 17.0311127,20.7414093 16.8440141,21.006477 C16.6569155,21.2715447 16.0410429,21.25 15.5615644,21.25 L1.47591034,21.25 C0.906700802,21.2404 0.725184353,21.2871467 0.35829582,21.006477 C-0.00859271212,20.7258073 2.51338192e-13,20.4001909 2.471506e-13,19.6224257 C2.471506e-13,19.6224257 2.40633251e-13,1.38138147 2.42402662e-13,1.38138147 C0.0546739059,1.00363277 0.0439632768,0.788566957 0.35829582,0.433456569 Z" id="Rectangle-2"></path>
        </g>
    </g>
</svg>